<?xml version="1.0" encoding="utf-8" ?>
<svg xmlns="http://www.w3.org/2000/svg" xmlns:ev="http://www.w3.org/2001/xml-events" xmlns:xlink="http://www.w3.org/1999/xlink" baseProfile="full" height="27px" version="1.1" viewBox="0 0 32 27" width="32px">
  <defs/>
  <g id="x4b692f_r75_g105_b47_a1.0">
    <path d="M 7,11 10,11 10,10 11,10 11,9 12,9 12,12 13,12 13,13 14,13 14,16 12,16 12,15 10,15 10,14 8,14 8,13 6,13 6,12 7,12 z M 11,13 11,12 10,12 10,13 11,13 11,14 12,14 12,13 z" fill="#4b692f" fill-opacity="1.0" id="x4b692f_r75_g105_b47_a1.0_shape1"/>
    <path d="M 23,14 23,15 21,15 21,16 19,16 19,13 20,13 20,12 21,12 21,10 21,9 22,9 22,10 23,10 23,11 24,11 26,11 26,12 27,12 27,13 25,13 25,14 z M 22,12 22,13 21,13 21,14 22,14 22,13 23,13 23,12 z" fill="#4b692f" fill-opacity="1.0" id="x4b692f_r75_g105_b47_a1.0_shape2"/>
    <path d="M 20,10 19,10 19,11 18,11 18,8 19,8 19,7 20,7 20,6 22,6 22,8 21,8 21,9 20,9 z" fill="#4b692f" fill-opacity="1.0" id="x4b692f_r75_g105_b47_a1.0_shape3"/>
    <path d="M 12,6 12,7 13,7 14,7 14,8 15,8 15,11 14,11 14,10 13,10 13,9 12,9 12,8 11,8 11,6 z" fill="#4b692f" fill-opacity="1.0" id="x4b692f_r75_g105_b47_a1.0_shape4"/>
    <path d="M 16,8 17,8 17,11 18,11 18,13 17,13 17,14 16,14 16,13 15,13 15,11 16,11 z" fill="#4b692f" fill-opacity="1.0" id="x4b692f_r75_g105_b47_a1.0_shape5"/>
  </g>
  <g id="xedc39a_r237_g195_b154_a1.0">
    <path d="M 24,16 24,15 26,15 26,16 25,16 25,17 24,17 24,18 23,18 23,19 21,19 21,20 19,20 18,20 18,21 17,21 15,21 15,20 13,20 12,20 12,19 11,19 10,19 10,18 9,18 9,17 8,17 8,16 7,16 7,15 8,15 9,15 9,16 10,16 11,16 11,17 12,17 14,17 14,18 18,18 19,18 19,17 20,17 22,17 22,16 z" fill="#edc39a" fill-opacity="1.0" id="xedc39a_r237_g195_b154_a1.0_shape1"/>
    <path d="M 7,14 7,15 6,15 6,14 z" fill="#edc39a" fill-opacity="1.0" id="xedc39a_r237_g195_b154_a1.0_shape2"/>
    <path d="M 27,15 26,15 26,14 27,14 z" fill="#edc39a" fill-opacity="1.0" id="xedc39a_r237_g195_b154_a1.0_shape3"/>
  </g>
  <g id="x303e23_r48_g62_b35_a1.0">
    <path d="M 14,7 12,7 12,6 9,6 9,5 11,5 13,5 13,6 14,6 z" fill="#303e23" fill-opacity="1.0" id="x303e23_r48_g62_b35_a1.0_shape1"/>
    <path d="M 19,8 14,8 14,7 19,7 z" fill="#303e23" fill-opacity="1.0" id="x303e23_r48_g62_b35_a1.0_shape2"/>
    <path d="M 7,12 6,12 6,11 6,10 10,10 10,11 7,11 z" fill="#303e23" fill-opacity="1.0" id="x303e23_r48_g62_b35_a1.0_shape3"/>
    <path d="M 27,12 26,12 26,11 23,11 23,10 27,10 z" fill="#303e23" fill-opacity="1.0" id="x303e23_r48_g62_b35_a1.0_shape4"/>
    <path d="M 24,6 20,6 20,5 24,5 z" fill="#303e23" fill-opacity="1.0" id="x303e23_r48_g62_b35_a1.0_shape5"/>
    <path d="M 15,13 14,13 14,12 14,11 15,11 15,12 z" fill="#303e23" fill-opacity="1.0" id="x303e23_r48_g62_b35_a1.0_shape6"/>
    <path d="M 18,13 18,11 19,11 19,13 z" fill="#303e23" fill-opacity="1.0" id="x303e23_r48_g62_b35_a1.0_shape7"/>
    <path d="M 19,6 20,6 20,7 19,7 z" fill="#303e23" fill-opacity="1.0" id="x303e23_r48_g62_b35_a1.0_shape8"/>
    <path d="M 11,8 12,8 12,9 11,9 z" fill="#303e23" fill-opacity="1.0" id="x303e23_r48_g62_b35_a1.0_shape9"/>
    <path d="M 22,9 21,9 21,8 22,8 z" fill="#303e23" fill-opacity="1.0" id="x303e23_r48_g62_b35_a1.0_shape10"/>
    <path d="M 16,10 16,11 15,11 15,10 z" fill="#303e23" fill-opacity="1.0" id="x303e23_r48_g62_b35_a1.0_shape11"/>
    <path d="M 17,11 17,10 18,10 18,11 z" fill="#303e23" fill-opacity="1.0" id="x303e23_r48_g62_b35_a1.0_shape12"/>
    <path d="M 12,11 13,11 13,12 12,12 z" fill="#303e23" fill-opacity="1.0" id="x303e23_r48_g62_b35_a1.0_shape13"/>
    <path d="M 21,11 21,12 20,12 20,11 z" fill="#303e23" fill-opacity="1.0" id="x303e23_r48_g62_b35_a1.0_shape14"/>
    <path d="M 6,13 5,13 5,12 6,12 z" fill="#303e23" fill-opacity="1.0" id="x303e23_r48_g62_b35_a1.0_shape15"/>
    <path d="M 27,12 28,12 28,13 27,13 z" fill="#303e23" fill-opacity="1.0" id="x303e23_r48_g62_b35_a1.0_shape16"/>
    <path d="M 16,15 16,16 15,16 15,15 z" fill="#303e23" fill-opacity="1.0" id="x303e23_r48_g62_b35_a1.0_shape17"/>
    <path d="M 17,15 18,15 18,16 17,16 z" fill="#303e23" fill-opacity="1.0" id="x303e23_r48_g62_b35_a1.0_shape18"/>
  </g>
  <g id="x313b38_r49_g59_b56_a1.0">
    <path d="M 5,15 5,13 8,13 8,14 6,14 6,15 z" fill="#313b38" fill-opacity="1.0" id="x313b38_r49_g59_b56_a1.0_shape1"/>
    <path d="M 28,15 27,15 27,14 25,14 25,13 27,13 28,13 z" fill="#313b38" fill-opacity="1.0" id="x313b38_r49_g59_b56_a1.0_shape2"/>
    <path d="M 8,8 8,7 9,7 10,7 10,8 9,8 z" fill="#313b38" fill-opacity="1.0" id="x313b38_r49_g59_b56_a1.0_shape3"/>
    <path d="M 23,7 25,7 25,8 23,8 z" fill="#313b38" fill-opacity="1.0" id="x313b38_r49_g59_b56_a1.0_shape4"/>
    <path d="M 10,14 10,15 9,15 8,15 8,14 9,14 z" fill="#313b38" fill-opacity="1.0" id="x313b38_r49_g59_b56_a1.0_shape5"/>
    <path d="M 24,14 25,14 25,15 24,15 23,15 23,14 z" fill="#313b38" fill-opacity="1.0" id="x313b38_r49_g59_b56_a1.0_shape6"/>
    <path d="M 10,7 10,6 11,6 11,7 z" fill="#313b38" fill-opacity="1.0" id="x313b38_r49_g59_b56_a1.0_shape7"/>
    <path d="M 22,6 23,6 23,7 22,7 z" fill="#313b38" fill-opacity="1.0" id="x313b38_r49_g59_b56_a1.0_shape8"/>
    <path d="M 14,10 14,11 13,11 13,10 z" fill="#313b38" fill-opacity="1.0" id="x313b38_r49_g59_b56_a1.0_shape9"/>
    <path d="M 19,11 19,10 20,10 20,11 z" fill="#313b38" fill-opacity="1.0" id="x313b38_r49_g59_b56_a1.0_shape10"/>
    <path d="M 10,13 10,12 11,12 11,13 z" fill="#313b38" fill-opacity="1.0" id="x313b38_r49_g59_b56_a1.0_shape11"/>
    <path d="M 22,12 23,12 23,13 22,13 z" fill="#313b38" fill-opacity="1.0" id="x313b38_r49_g59_b56_a1.0_shape12"/>
    <path d="M 12,13 12,14 11,14 11,13 z" fill="#313b38" fill-opacity="1.0" id="x313b38_r49_g59_b56_a1.0_shape13"/>
    <path d="M 16,13 16,14 15,14 15,13 z" fill="#313b38" fill-opacity="1.0" id="x313b38_r49_g59_b56_a1.0_shape14"/>
    <path d="M 17,14 17,13 18,13 18,14 z" fill="#313b38" fill-opacity="1.0" id="x313b38_r49_g59_b56_a1.0_shape15"/>
    <path d="M 22,14 21,14 21,13 22,13 z" fill="#313b38" fill-opacity="1.0" id="x313b38_r49_g59_b56_a1.0_shape16"/>
    <path d="M 15,14 15,15 14,15 14,14 z" fill="#313b38" fill-opacity="1.0" id="x313b38_r49_g59_b56_a1.0_shape17"/>
    <path d="M 18,15 18,14 19,14 19,15 z" fill="#313b38" fill-opacity="1.0" id="x313b38_r49_g59_b56_a1.0_shape18"/>
    <path d="M 11,16 11,15 12,15 12,16 z" fill="#313b38" fill-opacity="1.0" id="x313b38_r49_g59_b56_a1.0_shape19"/>
    <path d="M 22,16 21,16 21,15 22,15 z" fill="#313b38" fill-opacity="1.0" id="x313b38_r49_g59_b56_a1.0_shape20"/>
  </g>
  <g id="x000000_r0_g0_b0_a1.0">
    <path d="M 8,10 8,9 10,9 10,8 11,8 11,10 z" fill="#000000" fill-opacity="1.0" id="x000000_r0_g0_b0_a1.0_shape1"/>
    <path d="M 22,10 22,8 23,8 23,9 25,9 25,10 z" fill="#000000" fill-opacity="1.0" id="x000000_r0_g0_b0_a1.0_shape2"/>
    <path d="M 16,9 16,10 15,10 15,9 15,8 16,8 z" fill="#000000" fill-opacity="1.0" id="x000000_r0_g0_b0_a1.0_shape3"/>
    <path d="M 18,10 17,10 17,9 17,8 18,8 18,9 z" fill="#000000" fill-opacity="1.0" id="x000000_r0_g0_b0_a1.0_shape4"/>
    <path d="M 12,9 13,9 13,10 13,11 12,11 12,10 z" fill="#000000" fill-opacity="1.0" id="x000000_r0_g0_b0_a1.0_shape5"/>
    <path d="M 20,11 20,9 21,9 21,11 z" fill="#000000" fill-opacity="1.0" id="x000000_r0_g0_b0_a1.0_shape6"/>
    <path d="M 14,12 14,13 13,13 13,12 13,11 14,11 z" fill="#000000" fill-opacity="1.0" id="x000000_r0_g0_b0_a1.0_shape7"/>
    <path d="M 20,11 20,13 19,13 19,11 z" fill="#000000" fill-opacity="1.0" id="x000000_r0_g0_b0_a1.0_shape8"/>
    <path d="M 14,14 14,13 15,13 15,14 z" fill="#000000" fill-opacity="1.0" id="x000000_r0_g0_b0_a1.0_shape9"/>
    <path d="M 18,13 19,13 19,14 18,14 z" fill="#000000" fill-opacity="1.0" id="x000000_r0_g0_b0_a1.0_shape10"/>
    <path d="M 16,15 15,15 15,14 16,14 z" fill="#000000" fill-opacity="1.0" id="x000000_r0_g0_b0_a1.0_shape11"/>
    <path d="M 18,14 18,15 17,15 17,14 z" fill="#000000" fill-opacity="1.0" id="x000000_r0_g0_b0_a1.0_shape12"/>
  </g>
  <g id="xd8a066_r216_g160_b102_a1.0">
    <path d="M 14,17 19,17 19,18 14,18 z" fill="#d8a066" fill-opacity="1.0" id="xd8a066_r216_g160_b102_a1.0_shape1"/>
    <path d="M 11,17 11,16 13,16 14,16 14,17 13,17 z" fill="#d8a066" fill-opacity="1.0" id="xd8a066_r216_g160_b102_a1.0_shape2"/>
    <path d="M 22,16 22,17 19,17 19,16 z" fill="#d8a066" fill-opacity="1.0" id="xd8a066_r216_g160_b102_a1.0_shape3"/>
    <path d="M 11,15 11,16 10,16 9,16 9,15 10,15 z" fill="#d8a066" fill-opacity="1.0" id="xd8a066_r216_g160_b102_a1.0_shape4"/>
    <path d="M 23,15 24,15 24,16 23,16 22,16 22,15 z" fill="#d8a066" fill-opacity="1.0" id="xd8a066_r216_g160_b102_a1.0_shape5"/>
    <path d="M 8,14 8,15 7,15 7,14 z" fill="#d8a066" fill-opacity="1.0" id="xd8a066_r216_g160_b102_a1.0_shape6"/>
    <path d="M 25,15 25,14 26,14 26,15 z" fill="#d8a066" fill-opacity="1.0" id="xd8a066_r216_g160_b102_a1.0_shape7"/>
  </g>
  <g id="xb38e45_r179_g142_b69_a1.0">
    <path d="M 15,20 15,21 14,21 13,21 13,20 14,20 z" fill="#b38e45" fill-opacity="1.0" id="xb38e45_r179_g142_b69_a1.0_shape1"/>
    <path d="M 19,21 18,21 18,20 19,20 20,20 20,21 z" fill="#b38e45" fill-opacity="1.0" id="xb38e45_r179_g142_b69_a1.0_shape2"/>
    <path d="M 6,15 7,15 7,16 6,16 z" fill="#b38e45" fill-opacity="1.0" id="xb38e45_r179_g142_b69_a1.0_shape3"/>
    <path d="M 26,16 26,15 27,15 27,16 z" fill="#b38e45" fill-opacity="1.0" id="xb38e45_r179_g142_b69_a1.0_shape4"/>
    <path d="M 7,16 8,16 8,17 7,17 z" fill="#b38e45" fill-opacity="1.0" id="xb38e45_r179_g142_b69_a1.0_shape5"/>
    <path d="M 25,16 26,16 26,17 25,17 z" fill="#b38e45" fill-opacity="1.0" id="xb38e45_r179_g142_b69_a1.0_shape6"/>
    <path d="M 9,17 9,18 8,18 8,17 z" fill="#b38e45" fill-opacity="1.0" id="xb38e45_r179_g142_b69_a1.0_shape7"/>
    <path d="M 24,18 24,17 25,17 25,18 z" fill="#b38e45" fill-opacity="1.0" id="xb38e45_r179_g142_b69_a1.0_shape8"/>
    <path d="M 9,19 9,18 10,18 10,19 z" fill="#b38e45" fill-opacity="1.0" id="xb38e45_r179_g142_b69_a1.0_shape9"/>
    <path d="M 23,19 23,18 24,18 24,19 z" fill="#b38e45" fill-opacity="1.0" id="xb38e45_r179_g142_b69_a1.0_shape10"/>
    <path d="M 22,19 22,20 21,20 21,19 z" fill="#b38e45" fill-opacity="1.0" id="xb38e45_r179_g142_b69_a1.0_shape11"/>
  </g>
  <g id="x1e2422_r30_g36_b34_a1.0">
    <path d="M 9,7 8,7 8,6 9,6 10,6 10,7 z" fill="#1e2422" fill-opacity="1.0" id="x1e2422_r30_g36_b34_a1.0_shape1"/>
    <path d="M 23,7 23,6 24,6 25,6 25,7 24,7 z" fill="#1e2422" fill-opacity="1.0" id="x1e2422_r30_g36_b34_a1.0_shape2"/>
    <path d="M 11,7 11,8 10,8 10,7 z" fill="#1e2422" fill-opacity="1.0" id="x1e2422_r30_g36_b34_a1.0_shape3"/>
    <path d="M 23,8 22,8 22,7 23,7 z" fill="#1e2422" fill-opacity="1.0" id="x1e2422_r30_g36_b34_a1.0_shape4"/>
  </g>
  <g id="x577d35_r87_g125_b53_a1.0">
    <path d="M 17,15 17,16 16,16 16,15 16,14 17,14 z" fill="#577d35" fill-opacity="1.0" id="x577d35_r87_g125_b53_a1.0_shape1"/>
    <path d="M 14,16 14,15 15,15 15,16 15,17 14,17 z" fill="#577d35" fill-opacity="1.0" id="x577d35_r87_g125_b53_a1.0_shape2"/>
    <path d="M 18,15 19,15 19,16 19,17 18,17 18,16 z" fill="#577d35" fill-opacity="1.0" id="x577d35_r87_g125_b53_a1.0_shape3"/>
  </g>
  <g id="x979f8f_r151_g159_b143_a1.0">
    <path d="M 18,17 15,17 15,16 18,16 z" fill="#979f8f" fill-opacity="1.0" id="x979f8f_r151_g159_b143_a1.0_shape1"/>
  </g>
  <g id="xcadbfb_r202_g219_b251_a1.0">
    <path d="M 8,8 9,8 9,9 8,9 z" fill="#cadbfb" fill-opacity="1.0" id="xcadbfb_r202_g219_b251_a1.0_shape1"/>
    <path d="M 25,8 25,9 24,9 24,8 z" fill="#cadbfb" fill-opacity="1.0" id="xcadbfb_r202_g219_b251_a1.0_shape2"/>
  </g>
  <g id="x9aacb6_r154_g172_b182_a1.0">
    <path d="M 10,9 9,9 9,8 10,8 z" fill="#9aacb6" fill-opacity="1.0" id="x9aacb6_r154_g172_b182_a1.0_shape1"/>
    <path d="M 23,8 24,8 24,9 23,9 z" fill="#9aacb6" fill-opacity="1.0" id="x9aacb6_r154_g172_b182_a1.0_shape2"/>
  </g>
  <g id="xaa8547_r170_g133_b71_a1.0">
    <path d="M 11,20 11,19 12,19 12,20 z" fill="#aa8547" fill-opacity="1.0" id="xaa8547_r170_g133_b71_a1.0_shape1"/>
  </g>
</svg>
